<svg width="24" height="24" viewBox="0 0 24 24" fill="none" xmlns="http://www.w3.org/2000/svg">
    <path d="M3 6V18C3 18.5304 3.21071 19.0391 3.58579 19.4142C3.96086 19.7893 4.46957 20 5 20H19C19.5304 20 20.0391 19.7893 20.4142 19.4142C20.7893 19.0391 21 18.5304 21 18V8C21 7.46957 20.7893 6.96086 20.4142 6.58579C20.0391 6.21071 19.5304 6 19 6H11L9 4H5C4.46957 4 3.96086 4.21071 3.58579 4.58579C3.21071 4.96086 3 5.46957 3 6Z" stroke="currentColor" stroke-width="2" stroke-linecap="round" stroke-linejoin="round"/>
    <path d="M7 10H17" stroke="currentColor" stroke-width="2" stroke-linecap="round"/>
    <path d="M7 14H13" stroke="currentColor" stroke-width="2" stroke-linecap="round"/>
</svg>