<svg width="24" height="24" viewBox="0 0 24 24" fill="none" xmlns="http://www.w3.org/2000/svg">
    <circle cx="12" cy="12" r="3" stroke="currentColor" stroke-width="2"/>
    <path d="M19.4 15C19.2669 15.3044 19.1995 15.6343 19.2 15.9675C19.2 16.3007 19.2684 16.6304 19.4025 16.9344C19.5365 17.2384 19.7331 17.5096 19.979 17.7294C20.2249 17.9491 20.5143 18.1124 20.8275 18.2081L21 18.2675C20.6966 19.165 20.0661 19.9229 19.2218 20.3992C18.3775 20.8755 17.3746 21.04 16.4075 20.8637C15.4404 20.6875 14.57 20.1817 13.9563 19.4381C13.3426 18.6945 13.025 17.7616 13.0625 16.8125C13.1 15.8634 13.49 14.9593 14.1575 14.2662C14.825 13.5731 15.725 13.1375 16.675 13.0375L17.0625 13H17.125C17.4587 13 17.7886 13.0674 18.093 13.1975C18.3974 13.3276 18.6696 13.5174 18.8925 13.755C19.1154 13.9926 19.2841 14.2728 19.3881 14.5775C19.4921 14.8822 19.5292 15.2047 19.4975 15.5237" stroke="currentColor" stroke-width="2"/>
    <path d="M4.6 9C4.73312 8.69558 4.80046 8.36569 4.8 8.0325C4.79954 7.69931 4.73115 7.36959 4.59715 7.06561C4.46314 6.76163 4.26653 6.49038 4.02065 6.27063C3.77477 6.05088 3.48535 5.88758 3.17215 5.79187L3 5.7325C3.30341 4.835 3.93389 4.07714 4.77818 3.6008C5.62247 3.12446 6.62537 2.96003 7.5925 3.13625C8.55963 3.31247 9.43004 3.81834 10.0437 4.56191C10.6574 5.30548 10.975 6.23839 10.9375 7.1875C10.9 8.13661 10.51 9.04074 9.8425 9.73375C9.175 10.4269 8.275 10.8625 7.325 10.9625L6.9375 11H6.875C6.5413 11 6.2114 10.9326 5.90697 10.8025C5.60255 10.6724 5.33036 10.4826 5.1075 10.245C4.88464 10.0074 4.71587 9.72721 4.61187 9.42254C4.50787 9.11787 4.47081 8.79534 4.5025 8.47625" stroke="currentColor" stroke-width="2"/>
</svg>